<svg width="101" height="100" fill="none" xmlns="http://www.w3.org/2000/svg"><path fill-rule="evenodd" clip-rule="evenodd" d="M49.8 98.8a48.8 48.8 0 100-97.6 48.8 48.8 0 000 97.6zm0 .6a49.4 49.4 0 100-98.9 49.4 49.4 0 000 99z" fill="url(#paint0_linear)"/><path fill-rule="evenodd" clip-rule="evenodd" d="M78.3 17.3l-.1-.3-18.7 7-.3-.1-.1.3h-.3v.3l-4.7 7.8-13.5-11.4v-.3L25.8 18v.3L21.4 26h.2l-.8 7.3-6 8.2-4.5 3.3.2.3 10 5-.2.3 14.2 8.2.2-.2 29.9 7.4v.3l.4-.2 15-4.5.2.1 14.3-19.4-.3-.2-24-7.3 8-17.3zM15 41.8l6-8L51.7 41 34.5 58l-13.8-7.9.1-.2-9.8-5 4.1-3.1zm55-7.1l-5.9-2.4L52.5 41l12.4 24.5h.1L80 61v.2l14-19L70 35l.1-.2zm.1 0zm-48.8-1.3l18.9-12.2L54 32.8l-1.8 7.9-.2-.2v.1l-30.7-7.2zm38-9l4.8 7.5-11.5 8.5 1.8-7.6.1-.1-.2-.2 4.9-8zm5.3 7.6l-.2-.3-4.8-7.4 18-6.7-7.6 16.6-5.6-2.1.2-.1zM22 26l4-7.6 14 2.5L21.4 33l.7-7zm13 32l17.1-17 12.4 24.4L35 58z" fill="#84EBB0"/><path d="M12.1 18l3.5.7h.3l3.5-.6c.1 0 .3 0 .4-.2l2.7-3.4c.1-.2.3-.3.5-.3l1.8.3m0 0v1.9c0 .2.2.5.5.5l.7.2c.4 0 .6.4.4.8v0l-.4.2-2.9.6H23L20.5 20l-2 1.4c-.2.1-.2.3-.2.5V23c0 .3.1.5.3.6l2.4.9c.1 0 .3.2.3.4v.2c.2.5.8.7 1.1.3l2.4-2.7 1.8-1.8.4-.1h1.4c.3 0 .5.1.6.4v.3c.2.3.5.5.8.4l1.1-.2c.3 0 .7.2.7.5l.2 1.6.2.4.7.5c.4.3.4.7 0 1l-1.1.8h-.1l-3.6 1.8h-.2l-2.6 2.5-4.2 3.1h-.1l-1.2 1.3-2.5 2.4-.1.3-.7 2.2v.2l-.4.7c-.2.4-.9.4-1 0l-.7-1.4c0-.2-.2-.3-.3-.3l-1.3-.5c-.3 0-.6 0-.7.2l-.6.8c-.1.2-.4.3-.7.2l-1.2-.5a.6.6 0 00-.6.2l-2.1 2.1c-.2.2-.2.4-.2.5L7 45c0 .3.3.4.5.5l1.8.5c.3 0 .5 0 .6-.2v0c.4-.5 1-.2 1 .4v.2c0 .2.1.5.4.6l1.7.7c.2 0 .3.2.4.4l.8 3.4m10.7-37l1.8.2c.4 0 .7-.2.7-.6V14c0-.3.2-.6.6-.6h1.7m-4.8 1.2l.7 1.3c0 .2.2.3.4.4l4.1.6.3.2.3.3c.3.3.1 1-.3 1h-.6c-.3.1-.5.4-.5.7v.5c0 .3.2.5.5.6l.9.1c.2 0 .5 0 .6-.3l.2-.4c0-.2.2-.3.4-.3l1.1-.4c.5 0 .6-.6.3-1h0l-.1-.2-.6-1.5c0-.2-.2-.3-.3-.4l-2.5-.8a.6.6 0 01-.4-.7l.3-.9M14 51.5l3.7-.4h1.8c.2 0 .4-.1.5-.4l.2-.3c.1-.4.5-.5.9-.3l1.2.9.3.1H25.3l4.3 2.7.2.2 1.3 2v.5l-.1.6c0 .2 0 .5.3.6l.4.3h.6l.4-.3h.7l1 .9.3.1 3.8.7c.2 0 .4.2.5.5l.3 1.8v.4l-1.6 2.6-.1.2-1 5c0 .2-.2.3-.4.4l-2.3 1-.2.3-1.2 2.1-2 3.4c0 .2-.2.3-.4.3l-.8.1c-.3.1-.6.5-.4.9l.2.6c.1.2 0 .5-.2.7L27.1 81c-.2 0-.3.3-.3.5v2.2l.3 2.3s0 0 0 0l.5 2s0 0 0 0l.3.6c.2.4-.1.9-.5.9H27c-.2 0-.3 0-.5-.2l-2-2-.2-.1-1.6-2.6-.1-.3-.2-2.4-.1-.3-.8-1.3V80l-.6-5.8.2-5.3c0-.2 0-.4-.2-.5l-1.8-1.4H19l-.8-.3a.6.6 0 01-.5-.4l-.5-1.9c0-.1 0-.3-.2-.4l-1.3-.8a.6.6 0 01-.2-.2l-.7-1.8v-.1l-.4-2s0 0 0 0v-1.8-.4l2-2.2v-.5l-.4-2.1c0-.3-.3-.5-.5-.5l-1.4-.2zm0 0l-1.7-.6a.6.6 0 01-.4-.4c-.2-.5-.5-1.3-.7-1.3a27.8 27.8 0 01-2.3-.5l-1.7-1.2-.3-.1-2.2-.3-.3-.1-2.6-2.2h-.1l-1-.5m85.5-27.8L84 17l-2.8.3-1.4.6h-.5l-.8-.4a.6.6 0 00-.6 0l-1.3 1s0 0 0 0l-.7.7c-.2.3-.6.3-.8 0l-1.2-1v0c-.4-.3.5-1.1-.1-1.3l-2.3-.7h-.3l-4 .8h-.3l-1.4 1.3-2 1.8h-.1l-1.2.6c-.2.1-.4.5-.3.7l.2.5c0 .2.3.4.6.4H64c.3 0 .5.1.6.3l.3.7c.2.2.4.3.7.2h.7l.5-.5.6-2.3.1-.2a61.3 61.3 0 011.9-2c.4-.1.5.3.4.6l-.4 1c-.2.3 0 .6.2.8l.9.4h.4l.6-.1c.3-.1.7.1.7.5v.2c0 .2-.1.4-.3.5l-.3.2H71l-.3-.1a.6.6 0 00-.7.2l-.4.5c0 .1 0 .2-.2.2l-2 1.3H65a.6.6 0 01-.5-.2h0a.6.6 0 00-1.1.1l-.2.8c0 .3-.5.2-.9.1h-.5l-.7.6h-.1l-1.3 1.4-.3.2-1 .2c-.6.1-.7.8-.3 1.1l.5.5v1c0 .4-.3.7-.6.6l-1.9-.2c-.2 0-.3 0-.5.2l-1 1c-.2.2-.3.4-.2.6l.2 1.6c0 .3.3.5.6.5h1.4m0 0l3.1-1.4c.1 0 .2 0 .3-.2l1-1.5c.2-.3.6-.3.8-.2v0c.3.2.7.1.8-.1l.2-.3c.2-.3.6-.3.9 0l2.7 2.3.5.1c.5 0 .6-.5.3-.9l-1.3-1.3a.6.6 0 010-.8h0c.3-.3.7-.3 1 0l1.8 1.8.1.1.8 1.9c.1.2.2.3.4.3.6.2 1.4.3 1.4 0l.2-1.6c0-.4.4-.6.8-.5l.6.2c.3.1.5.5.4.8l-.2.6c0 .3 0 .5.3.7l1.8 1c.2.2.4.2.6.1l.7-.3c.3-.1.8 0 .8.5l.2 1v.4l-.2.7v.4l.8 3.1.2.3 2 1.5.2.1a20.6 20.6 0 012 4.5c0 .2.3.4.5.4l2 .4c.3 0 .5 0 .6-.2a23 23 0 015-3.7c.3-.2.3-.6.1-1l-1.4-1.8a.6.6 0 00-.7-.2l-2 .6H86c-.8-.8-2-1.9-2-2.2v-.6c0-.4.4-.7.8-.5l3 1.1a39 39 0 004.1 1.5h2.4l.4.1 1.5 1.3c.4.3 1 0 1-.4v-2.4l.2-.4.7-.6m-41.6-4.7v.9m0 0L54 37.8l-.2.3-.3 1.3-.2.2-1.5 2-2 3v.6l.5 1.2v.6c-.3.3-.6.7-.6.9L50 50c.1.3.3.4.5.5l.8.2c.2 0 .4.3.4.5l.2 1.3c0 .1 0 .3.2.4l2 1.4c0 .2.2.2.4.2L57 54l3-.9h.5l1.5.8h1.3c.2 0 .4.2.5.4l.4.7v.4l-.5 2 .1.5 1.8 2.7v.2l.5 2.5v.3l-.9 2.8v.4l1 2.7.6 2.9v.1l2 3.5.7 1.3c.1.2.4.3.6.3l3.2-.3c.2 0 .4 0 .4-.3l3.5-6.5v-.1l1-3s0-.2.2-.3l2.3-1.3c.2 0 .3-.3.3-.5V63l-.1-.4-.9-1a.6.6 0 010-.7l2.6-4.7.1-.2 2.8-2.1.2-.4.4-2.3c.1-.4-.2-.7-.5-.7h-2.3-.1l-.7.2c-.3.1-.7 0-.8-.4l-1.3-3.6v-.1l-3.2-5v-.2l-.6-2.3c0-.3-.3-.5-.5-.5l-3.2-.3h-.2l-2.2-1a.6.6 0 00-.7 0l-.6.8-.5.2h-2.3c-.2 0-.4 0-.5-.2l-.9-1V37l-.7-1.4a.6.6 0 00-.6-.4l-3.7.4H60l-1.9.6h-.5l-1-.6zm-27-22.3l1.7-1.3a21 21 0 015-1.6h.9c.5 0 .8.7.4 1l-.7.6m-7.2 1.3l2 .3.4-.1 2.2-1.4H36.8m0 0l2.1.2h.4l2.1-1.3h.4l4.4.3h.2l3.2-.9h.2l3.7.6c.5.1.7.9.2 1.2l-.3.1-.1.1-2.4 2.4c-.2.1-.1.4 0 .6v0c.3.2.2.5 0 .6l-3 1.2-4 1.9s0 0 0 0l-1.9.5-.2.1-1.6 1.5c-.3.3-.6.3-.9 0l-1.1-.9a.6.6 0 01-.2-.7l1.6-3.2v-.6l-1.8-2.5-1-1.3zm19.8 12.7h0v.4l-.3.5c0 .2-.3.3-.5.3v0a.6.6 0 01-.6-.6v-.5c0-.3.2-.5.5-.6h.2c.4 0 .7.2.7.5zm.8-.9l.4.4c.2.2.2.5 0 .8v.2c-.2.2-.2.5 0 .7l.2.3c.2.2.6.3.8 0l.6-.3c.2-.2.3-.5.2-.8l-.3-.5v-.1l-.8-.8-.2-.3-.1-.6c0-.2-.2-.3-.4-.3v0c-.2 0-.3.1-.4.3l-.1.4v.6zm26.1 48.3l-.6-.1a.6.6 0 01-.4-.2l-.6-1a.6.6 0 010-.6l.7-1.4v-1.1-.3l.2-.6c0-.3.3-.5.5-.5h.4c.2 0 .4 0 .5-.2l.4-.5c.3-.5 1-.4 1 .2l.2 1.3v.3l-1.6 4.4c0 .2-.4.4-.7.3z" stroke="url(#paint1_linear)"/><g filter="url(#filter0_d)" fill="#84EBB0"><path d="M95.3 42c0 .4-.4.7-.8.7a.8.8 0 01-.8-.7c0-.5.4-.8.8-.8s.8.3.8.8zM80.8 61.4c0 .4-.4.8-.8.8a.8.8 0 01-.8-.8c0-.4.3-.7.8-.7.4 0 .8.3.8.7zM66 65.8c0 .4-.4.7-.8.7a.8.8 0 01-.8-.7c0-.4.4-.8.8-.8s.8.4.8.8zM78.9 17.3c0 .4-.4.7-.8.7a.8.8 0 01-.8-.7c0-.5.4-.8.8-.8s.8.3.8.8zM60.1 24.2c0 .5-.3.8-.8.8a.8.8 0 01-.8-.8c0-.4.4-.7.8-.7.5 0 .8.3.8.7zM65.2 31.8c0 .5-.4.8-.8.8a.8.8 0 01-.8-.8c0-.4.4-.7.8-.7s.8.3.8.7zM55.1 32.6c0 .4-.3.8-.7.8a.8.8 0 01-.8-.8c0-.4.3-.8.8-.8.4 0 .7.4.7.8zM71 34.7c0 .4-.4.7-.9.7a.8.8 0 01-.8-.7c0-.5.4-.8.8-.8.5 0 .8.3.8.8zM53.2 40.8c0 .4-.3.7-.8.7a.8.8 0 01-.8-.7c0-.4.4-.8.8-.8.5 0 .8.4.8.8zM35.4 58.5c0 .4-.4.7-.8.7a.8.8 0 01-.8-.7c0-.4.4-.8.8-.8s.8.4.8.8zM21.4 50c0 .4-.4.7-.8.7a.8.8 0 01-.8-.7c0-.4.4-.8.8-.8s.8.4.8.8zM11.4 45c0 .4-.3.8-.7.8a.8.8 0 01-.8-.8c0-.4.3-.8.8-.8.4 0 .7.4.7.8zM16 41.6c0 .4-.4.8-.8.8a.8.8 0 01-.8-.8c0-.4.3-.8.8-.8.4 0 .8.4.8.8zM22.2 33.4c0 .4-.4.7-.8.7a.8.8 0 01-.8-.7c0-.5.3-.8.8-.8.4 0 .8.3.8.8zM22.6 25.9c0 .4-.3.7-.8.7a.8.8 0 01-.7-.7c0-.4.3-.8.7-.8.5 0 .8.4.8.8zM26.7 18.1c0 .4-.4.8-.8.8a.8.8 0 01-.8-.8c0-.4.4-.8.8-.8s.8.4.8.8zM41.3 21c0 .4-.4.8-.8.8a.8.8 0 01-.8-.8c0-.4.4-.7.8-.7s.8.3.8.7z"/></g><defs><linearGradient id="paint0_linear" x1="49.8" y1=".5" x2="49.8" y2="99.4" gradientUnits="userSpaceOnUse"><stop stop-color="#84D8EB" stop-opacity=".7"/><stop offset="1" stop-color="#84E5EB" stop-opacity=".1"/></linearGradient><linearGradient id="paint1_linear" x1="49.4" y1="10.4" x2="49.4" y2="89.6" gradientUnits="userSpaceOnUse"><stop stop-color="#84DFEB" stop-opacity=".8"/><stop offset="1" stop-color="#84E5EB" stop-opacity=".2"/></linearGradient><filter id="filter0_d" x="4.9" y="11.5" width="95.4" height="60.1" filterUnits="userSpaceOnUse" color-interpolation-filters="sRGB"><feFlood flood-opacity="0" result="BackgroundImageFix"/><feColorMatrix in="SourceAlpha" values="0 0 0 0 0 0 0 0 0 0 0 0 0 0 0 0 0 0 127 0"/><feMorphology radius="2" operator="dilate" in="SourceAlpha" result="effect1_dropShadow"/><feOffset/><feGaussianBlur stdDeviation="1.5"/><feColorMatrix values="0 0 0 0 0.517647 0 0 0 0 0.921569 0 0 0 0 0.690196 0 0 0 0.4 0"/><feBlend in2="BackgroundImageFix" result="effect1_dropShadow"/><feBlend in="SourceGraphic" in2="effect1_dropShadow" result="shape"/></filter></defs></svg>