<svg width="470" height="189" fill="none" xmlns="http://www.w3.org/2000/svg"><g filter="url(#filter0_d)" fill="#3BE8B0"><path d="M132.8 113.9v-4.3H115V18.3h-6.6l-90 113v6h63V170H115v-32.8h17.8V133h-22.1v32.8h-25V133h-63v-.2l87.8-110.1h.2v91.3h22.1zM181.1 133l1 2a62.1 62.1 0 0022.7 26.6 60 60 0 0033 8.8 60 60 0 0032.6-8.5 61 61 0 0022.9-26.2l1.2-2.8h-4.7a60.6 60.6 0 01-21.6 25.3c-8.8 5.5-19 8.1-30.4 8A55.7 55.7 0 01207 158c-9-5.7-16-14-21.2-24.8v-.3H181zM179.9 113.9h-4.4a114 114 0 01-1.6-19.5c0-24.8 5.4-44 17-56.9a59.6 59.6 0 0146.9-19A58.9 58.9 0 01293.3 54c5.5 11.4 8.1 25 8.1 40.4 0 6.9-.5 13.4-1.5 19.5h-4.3c1-6 1.5-12.6 1.5-19.5 0-15-2.5-27.9-7.7-38.6a54.6 54.6 0 00-51.6-33c-18.4-.1-33 5.7-43.7 17.6-10.6 11.7-15.9 29.7-15.9 54 0 7 .6 13.4 1.7 19.5zM337.2 133v4.2h63V170H434v-32.8h17.7v-27.6H434V18.3h-6.6L351 113.9h5.4l72.9-91.3h.2v91.3h17.8v19h-17.8v32.8h-25.1V133h-67.3z"/><path fill-rule="evenodd" clip-rule="evenodd" d="M337.2 109.6h19.4v4.3h-19.4v-4.3zM297 109.6h19.3v4.3H297v-4.3zM289.8 133h26.5v4.3h-26.5V133zM178.2 109.6h-19.4v4.2h19.4v-4.2zM185.3 133h-26.5v4.2h26.5V133z"/></g><defs><filter id="filter0_d" x=".4" y=".3" width="469.3" height="188.1" filterUnits="userSpaceOnUse" color-interpolation-filters="sRGB"><feFlood flood-opacity="0" result="BackgroundImageFix"/><feColorMatrix in="SourceAlpha" values="0 0 0 0 0 0 0 0 0 0 0 0 0 0 0 0 0 0 127 0"/><feOffset/><feGaussianBlur stdDeviation="9"/><feColorMatrix values="0 0 0 0 0.517647 0 0 0 0 0.921569 0 0 0 0 0.690196 0 0 0 0.8 0"/><feBlend in2="BackgroundImageFix" result="effect1_dropShadow"/><feBlend in="SourceGraphic" in2="effect1_dropShadow" result="shape"/></filter></defs></svg>