<svg width="576" height="356" fill="none" xmlns="http://www.w3.org/2000/svg"><g opacity=".4" filter="url(#filter0_f)"><path d="M91.7 78.5c-13.4 8-8.6 31-8.6 31 22.3 22.5 42.6 40 69.2 50.3 30 11.7 41.6 28.6 90.4-11.6 48.8-40.3-2.8-66-15.7-73.5-23.2-13.5-29.7-16.4-64-16.4-40.9 0-57.9 12.2-71.3 20.2z" fill="#000"/></g><g opacity=".3" filter="url(#filter1_f)"><path d="M63.7 235.1c-9.5 5.7-6.1 22-6.1 22 15.8 16 30.2 28.3 49 35.7 21.3 8.3 29.6 20.3 64.2-8.3 34.6-28.5-2-46.7-11.2-52-16.4-9.7-21-11.7-45.4-11.7-29 0-41 8.6-50.5 14.3z" fill="#000"/></g><g opacity=".3" filter="url(#filter2_f)"><path d="M410.2 112.5c-9 5.4-5.9 20.8-5.9 20.8 15 15 28.7 26.8 46.5 33.8 20 7.8 27.9 19.1 60.6-7.9s-1.9-44.1-10.6-49.2c-15.5-9.1-19.9-11-42.9-11-27.4 0-38.8 8.1-47.7 13.5z" fill="#000"/></g><g opacity=".3" filter="url(#filter3_f)"><path d="M376.5 244.1c-8.7 5.3-5.6 20.2-5.6 20.2 14.5 14.6 27.7 26 45 32.7 19.4 7.6 27 18.6 58.7-7.6 31.7-26.1-1.8-42.8-10.2-47.7-15-8.8-19.3-10.7-41.6-10.7-26.5 0-37.6 8-46.3 13.1z" fill="#000"/></g><g opacity=".4" filter="url(#filter4_f)"><path d="M264.4 72.6c-7 4.2-4.5 16.2-4.5 16.2a104.7 104.7 0 0036.2 26.3c15.6 6 21.7 15 47.2-6 25.4-21-1.5-34.5-8.3-38.4-12-7.1-15.5-8.6-33.4-8.6-21.3 0-30.2 6.3-37.2 10.5z" fill="#000"/></g><g filter="url(#filter5_d)"><path d="M120.2 264.4l221.2-127.2m-179 103.6l118.4 68.5m-24-122L375 256M210 212.8l-118.4-69m283.5 12.5l-75-43.6" stroke="#3BE8B0" stroke-width="2" stroke-linecap="round"/></g><path fill-rule="evenodd" clip-rule="evenodd" d="M199.8 226.9c.4 0 .7 0 .8.3l2.5 5 4.9-2.6c.2 0 .6-.1.8 0 .3 0 .4.2.4.4l-2.9 12.9c0 .2-.4.4-.7.5-.4 0-.7-.1-.8-.3l-2.7-7-4.3 2.5c-.3.1-.6.2-1 0-.2 0-.3-.2-.3-.4l2.6-10.8c0-.2.3-.4.7-.5zm-1.4 10.1l3.8-2c.2-.2.5-.3.7-.2.2 0 .4.1.5.3l2 5.1 2-9-4.3 2.2-.7.2c-.2 0-.4-.2-.5-.3l-1.8-3.7-1.7 7.4z" fill="#70D99D"/><path d="M201.6 226c.2.2.1 1 .2 1.2 0 .4-.3.8-.8 1-.8.5-2 .5-2.6 0a.9.9 0 01-.4-.6v-1.2c.2-.1.5.3.7.1.9-.4 2.3-1 2.9-.5zM198.8 237c.6.5.5 1.3-.4 1.7-.8.5-2 .5-2.6 0a1 1 0 01-.4-.5c0-.4-.2-1.5.4-1.7.8-.5 2.4 0 3 .5zM207.2 241c.3.2.3 1 .3 1.4 0 .3-.3.7-.8 1-.8.4-2 .4-2.6 0a.9.9 0 01-.4-.6c0-.4-.2-1.3.4-1.6.8-.5 2.5-.7 3.1-.2zM209.8 228.7c.3.2.2 1 .2 1.3 0 .4-.3.7-.8 1-.8.5-2 .5-2.6 0-.6-.5-.5-1.3.4-1.7.8-.5 2.1-1.1 2.8-.6zM216.4 226.5l.7.5 2-1.1a7 7 0 001.7-1.3c.4-.4.6-.8.6-1.2v-1.1c-.2-.2-.4.1-.6 0l-1.2-.6H218a7 7 0 00-1.5.3l-1.7.7-3.4 1.2v.8l8.6 6.5 3.6-2c.8-.5 1.5-1 1.9-1.5.4-.5.7-1 .6-1.4 0-.4.1-1-.2-1.4h-.6c-.4-.3-.9-.5-1.4-.6a5 5 0 00-1.6 0c-.6 0-1.2.2-1.8.4l-1.7.8-2.2 1.3.8.6 2.1-1.2a5.7 5.7 0 012-.7h.9l.8.4.5.8c0 .3-.1.5-.4.8-.2.3-.5.6-1 .8l-1.6 1-6.2-4.8 1.4-.8c.5-.3 1-.5 1.6-.5.5 0 1 0 1.4.3l.3.6c0 .2 0 .5-.2.7l-.8.6-1.9 1.1zm5.6-9.1l-1.8.2v.8l9.6 7.3 1.7-1v-.9l-9.5-6.4zm11.2 4c-.2-.2-.3-.3-.3-.5 0-.1 0-.3.2-.5l.8-.6a7.7 7.7 0 012.8-1l-.7-.4c-.1 0-.5-.1-.8 0l-1.2.3-1.4.7c-.6.4-1.3.2-1.6.6-.3.4-.2 1.2-.1 1.5 0 .4.2.7.5 1l1.4.5 1.6-.1 1.5-.6c.4-.2.8-.5 1.1-.9.3-.3.5-.6.5-1 0-.3-.1-.6-.5-1l-1-.3c.3.2.5.4.5.7 0 .2 0 .5-.2.8l-.8.6-.9.4h-.8c-.2 0-.4 0-.6-.2zm-4.7-1.8l1.7.3.3-.5a5 5 0 012.8-1.8h.7l.5.3 3.8 2.9 1.7-1v-.8l-4-2.3c-.4-.3-.8-.4-1.4-.5-.5 0-1 0-1.7.2a8 8 0 00-3.5 2c-.1.2-.8.2-.9.4v.8zm8.8-4.2l3.9-2.2v5.9l7-4v-.9H247l-3.9 2.2v-5.9l-7 3.2v.8l1.2 1zm15.9-3c.8-.5 1.5-1 1.8-1.6.4-.6.5-1.1.5-1.8v-.8l-2 1.4c0 .3 0 .7-.3 1a4 4 0 01-2.4 1.4 3.4 3.4 0 01-2.7-.7l-.6-.7c-.2-.3-.2-.5-.2-.7 0-.2.1-.5.3-.7l.8-.6a3.5 3.5 0 012.3-.4c.4 0 .7.2 1 .5l.2.2v.2-.8l-5 3 .8.7 6.7-3.8v-.9h-.6l-1.8-.4h-2.2c-.8.2-1.6.5-2.4 1-.6.3-.9.3-1.2.7l-1 1c0 .3 0 1.3.2 1.7.2.4.5.7 1 1 .6.5 1.2.8 2 1h2.4c.8-.2 1.6-.5 2.4-1z" fill="#70D99D"/><g filter="url(#filter6_d)" fill="#3BE8B0"><path fill-rule="evenodd" clip-rule="evenodd" d="M199.8 226.1c.4 0 .7 0 .8.3l2.5 5 4.8-2.6h1c.2 0 .3.2.3.4l-3 12.9c0 .2-.3.4-.7.5-.3 0-.7-.1-.8-.4l-2.6-6.8-4.4 2.4c-.2.1-.6.2-.8 0-.3 0-.4-.2-.4-.4l2.6-10.8c0-.2.3-.5.7-.5zm-1.5 10.1l3.8-2c.3-.2.5-.3.8-.2.2 0 .4.1.5.3l2 5.1 2-9-4.3 2.2-.7.2c-.2 0-.4-.2-.5-.3l-1.8-3.7-1.8 7.4z"/><path d="M201.4 225.7c.6.5.4 1.3-.4 1.8-.8.4-2 .4-2.7 0-.6-.5-.4-1.3.4-1.8.8-.4 2-.4 2.7 0zM198.8 236.2c.6.5.4 1.2-.4 1.7s-2 .5-2.6 0c-.7-.4-.5-1.2.3-1.7.9-.5 2-.5 2.7 0zM207 240.8c.7.5.5 1.2-.3 1.7-.9.5-2 .5-2.7 0-.6-.4-.4-1.2.4-1.7s2-.5 2.7 0zM209.6 228.5c.6.4.5 1.2-.4 1.7-.8.5-2 .5-2.6 0-.7-.5-.5-1.3.3-1.7.9-.5 2-.5 2.7 0zM216.4 225.7l.7.5 2-1.1a7 7 0 001.7-1.3c.4-.4.6-.8.6-1.2 0-.4-.2-.8-.6-1.1-.4-.3-.8-.5-1.3-.6h-1.4a7 7 0 00-1.5.3l-1.7.7-3.4 2 8.5 6.5 3.7-2c.8-.5 1.4-1 1.9-1.5.4-.5.6-1 .6-1.5 0-.4-.3-.9-.8-1.3-.4-.3-1-.5-1.4-.6a5 5 0 00-1.6 0c-.6 0-1.2.2-1.8.4l-1.7.8-2.2 1.3.8.6 2-1.2a5.8 5.8 0 012-.7h1l.7.4c.3.3.5.5.5.8 0 .3 0 .5-.3.8-.2.3-.6.6-1 .8l-1.6 1-6.2-4.8 1.4-.8c.5-.3 1-.5 1.6-.5.5 0 1 0 1.3.3.3.2.4.4.4.6 0 .2 0 .5-.2.7a3 3 0 01-.9.6l-1.8 1.1zm5.6-9.1l-1.8 1 9.5 7.3 1.8-1-9.5-7.3zm11.1 4l-.2-.5c0-.1 0-.3.2-.5.1-.2.4-.4.8-.6a7.6 7.6 0 012.8-1l-.7-.4a7.6 7.6 0 00-4.8 2.1c-.3.3-.4.7-.4 1 0 .4.3.7.6 1l1.4.5 1.5-.1a5.6 5.6 0 002.7-1.5c.3-.3.5-.6.5-1 0-.3-.1-.6-.5-1l-1-.3c.3.2.5.4.5.7 0 .2 0 .5-.3.7-.1.3-.4.5-.8.7l-.8.4h-.8c-.3 0-.5 0-.7-.2zm-4.6-1.8l1.7.3.3-.5a5 5 0 012.8-1.8h.6l.6.3 3.7 2.9 1.8-1-4-3c-.4-.4-.9-.5-1.4-.6-.5 0-1.1 0-1.7.2a8 8 0 00-4.4 3.2zm8.8-4.2l3.8-2.2v5.9l7.1-4-1.2-1-4 2.2v-5.8l-6.9 4 1.2 1zm15.9-3c.8-.5 1.5-1 1.8-1.6.4-.6.5-1.2.4-1.8l-2 .6c0 .3 0 .7-.2 1a3 3 0 01-1 .9 4 4 0 01-1.4.5 3.4 3.4 0 01-2.7-.7l-.7-.7-.1-.7c0-.2 0-.5.3-.7l.7-.6a3.5 3.5 0 012.4-.4c.4 0 .7.2 1 .5l.1.2.1.2v-.8l-5.1 3 1 .7 6.6-3.8-.2-.2-.2-.1a5 5 0 00-2-1h-2.3a7.6 7.6 0 00-3.8 2l-.6 1.2c-.1.4 0 .8.1 1.2.2.4.5.7 1 1 .5.5 1.2.8 2 1h2.3c.9-.2 1.7-.5 2.5-1z"/></g><path d="M13 270L1 314.5l107 9.5 11.5-45 4-74.5-106-9.5-4.5 75z" fill="#0D1323" stroke="#3BE8B0" stroke-width=".5" stroke-linejoin="round"/><path opacity=".8" d="M13.5 270l52.8 4.5 52.2 4.5" stroke="url(#paint0_linear)" stroke-width=".5" stroke-linejoin="round"/><g opacity=".7"><path d="M39 299l-4.5 15.5 41 3.5 4-15.5L39 299z" fill="#0D1323"/><path d="M39 299l-4.5 15.5 41 3.5 4-15.5L39 299z" stroke="#3BE8B0" stroke-width=".5" stroke-linejoin="round"/><path d="M39 299l-4.5 15.5 41 3.5 4-15.5L39 299z" stroke="url(#paint1_radial)" stroke-width=".5" stroke-linejoin="round"/></g><g opacity=".7"><path d="M109 302.5l-98-9 5-20.5 98.5 8.5-5.5 21z" fill="#0D1323"/><path d="M109 302.5l-98-9 5-20.5 98.5 8.5-5.5 21z" stroke="#3BE8B0" stroke-width=".5" stroke-linejoin="round"/><path d="M109 302.5l-98-9 5-20.5 98.5 8.5-5.5 21z" stroke="url(#paint2_radial)" stroke-width=".5" stroke-linejoin="round"/></g><path d="M120 207.5L20.5 199l-4 68 99.5 8 4-67.5z" fill="#070B16"/><path d="M381 181l48.5 35 84.5-39.5-49-35-18.5-72-84 39.5 18.5 72z" fill="#0D1323" stroke="#3BE8B0" stroke-width=".5" stroke-linejoin="round"/><path opacity=".8" d="M382 180.5l47-22 35.5-16.5" stroke="url(#paint3_linear)" stroke-width=".5" stroke-linejoin="round"/><g opacity=".7"><path d="M436 189l17 12.5 32.5-15.5-17-12.5L436 189z" fill="#0D1323"/><path d="M436 189l17 12.5 32.5-15.5-17-12.5L436 189z" stroke="#3BE8B0" stroke-width=".5" stroke-linejoin="round"/><path d="M436 189l17 12.5 32.5-15.5-17-12.5L436 189z" stroke="url(#paint4_radial)" stroke-width=".5" stroke-linejoin="round"/></g><g opacity=".7"><path d="M488 161.5l-78 36-23-16.5 78.5-36.5 22.5 17z" fill="#0D1323"/><path d="M488 161.5l-78 36-23-16.5 78.5-36.5 22.5 17z" stroke="#3BE8B0" stroke-width=".5" stroke-linejoin="round"/><path d="M488 161.5l-78 36-23-16.5 78.5-36.5 22.5 17z" stroke="url(#paint5_radial)" stroke-width=".5" stroke-linejoin="round"/></g><path d="M444.5 74.5l-78 37 17 65 78-37-17-65z" fill="#070B16"/><path d="M303.5 296L249 327.5v3l27.5 16 54-31.5v-3l-27-16z" fill="#0D1323" stroke="#3BE8B0" stroke-width=".6" stroke-linejoin="round"/><path opacity=".5" d="M250 328l26.5 15.5 53-31" stroke="url(#paint6_linear)" stroke-width=".6" stroke-linejoin="round"/><path d="M276.5 343.5v2" stroke="url(#paint7_linear)" stroke-width=".6" stroke-linecap="round"/><path d="M276.5 343L250 327.5l53.5-31 26 15.5-53 31z" fill="#070B16"/><path d="M393.5 243L354 270.5v3l79 38.5 40-27.5v-3L393.5 243z" fill="#0D1323" stroke="#3BE8B0" stroke-width=".5" stroke-linejoin="round"/><path opacity=".5" d="M355 271l78 38 38-26.5" stroke="url(#paint8_linear)" stroke-width=".5" stroke-linejoin="round"/><path d="M433 309v2" stroke="url(#paint9_linear)" stroke-width=".5" stroke-linecap="round"/><path d="M472 281.5l-39 27-78-38 38.5-27 78.5 38z" fill="#070B16"/><path d="M291.5 72.5L253 111v3.5l34 11L325 87v-3.5l-33.5-11z" fill="#0D1323" stroke="#3BE8B0" stroke-width=".5" stroke-linejoin="round"/><path opacity=".6" d="M254 111.5l32.9 10.5L324 84.5" stroke="url(#paint10_linear)" stroke-width=".5" stroke-linejoin="round"/><path d="M286.8 122.2v2.3" stroke="url(#paint11_linear)" stroke-width=".5" stroke-linecap="round"/><path d="M286.8 121.6l-33.4-10.4 38.2-38.3 32.8 10.8-37.6 38z" fill="#070B16"/><path d="M90.5 143.5l-23.5-14 17-4V119l13.5 7.5v6.5l-7 10.5z" fill="#0D1323"/><path d="M97.5 133l-7 10.5-23.5-14 17-4m13.5 7.5v-6.5L84 119v6.5m13.5 7.5L84 125.5" stroke="#3BE8B0" stroke-width=".5" stroke-linejoin="round"/><path d="M97.5 133l-7 10.5-23.5-14 17-4m13.5 7.5v-6.5L84 119v6.5m13.5 7.5L84 125.5" stroke="url(#paint12_radial)" stroke-width=".5" stroke-linejoin="round"/><path d="M29.5 89.3V2.5l3-2 120 69.3V156l-4 2-119-68.7z" fill="#0D1323" stroke="#3BE8B0" stroke-width=".5"/><path d="M30 3.5V89l118 68.1V72L30 3.5z" fill="#070B16"/><path d="M31 3.5l117.5 68m0 0v85m0-85l4-1.5" stroke="url(#paint13_linear)" stroke-width=".5"/><defs><linearGradient id="paint0_linear" x1="13.5" y1="270" x2="116" y2="279" gradientUnits="userSpaceOnUse"><stop stop-color="#0D1323"/><stop offset=".2" stop-color="#3BE8B0"/><stop offset=".8" stop-color="#3BE8B0"/><stop offset="1" stop-color="#0D1323"/></linearGradient><linearGradient id="paint3_linear" x1="384" y1="179.5" x2="464" y2="142" gradientUnits="userSpaceOnUse"><stop stop-color="#0D1323"/><stop offset=".2" stop-color="#3BE8B0"/><stop offset=".8" stop-color="#3BE8B0"/><stop offset="1" stop-color="#0D1323"/></linearGradient><linearGradient id="paint6_linear" x1="251" y1="328.5" x2="324.9" y2="302.7" gradientUnits="userSpaceOnUse"><stop stop-color="#0D1323"/><stop offset=".3" stop-color="#3BE8B0"/><stop offset=".8" stop-color="#3BE8B0"/><stop offset="1" stop-color="#0D1323"/></linearGradient><linearGradient id="paint7_linear" x1="276.5" y1="344" x2="276.5" y2="345.5" gradientUnits="userSpaceOnUse"><stop stop-color="#216E5F"/><stop offset="1" stop-color="#2DA886" stop-opacity="0"/></linearGradient><linearGradient id="paint8_linear" x1="359" y1="266" x2="467.8" y2="264.4" gradientUnits="userSpaceOnUse"><stop stop-color="#0D1323"/><stop offset=".3" stop-color="#3BE8B0"/><stop offset=".7" stop-color="#3BE8B0" stop-opacity=".7"/><stop offset=".9" stop-color="#3BE8B0"/><stop offset="1" stop-color="#0D1323"/></linearGradient><linearGradient id="paint9_linear" x1="433" y1="309.5" x2="433" y2="311" gradientUnits="userSpaceOnUse"><stop stop-color="#1D6056"/><stop offset="1" stop-color="#2DA886" stop-opacity="0"/></linearGradient><linearGradient id="paint10_linear" x1="255.5" y1="112" x2="318" y2="76.3" gradientUnits="userSpaceOnUse"><stop stop-color="#0D1323"/><stop offset=".3" stop-color="#3BE8B0"/><stop offset=".8" stop-color="#3BE8B0"/><stop offset="1" stop-color="#0D1323"/></linearGradient><linearGradient id="paint11_linear" x1="286.8" y1="122.8" x2="286.8" y2="124.5" gradientUnits="userSpaceOnUse"><stop stop-color="#289377"/><stop offset="1" stop-color="#2DA886" stop-opacity="0"/></linearGradient><linearGradient id="paint13_linear" x1="31" y1="7" x2="51.8" y2="165" gradientUnits="userSpaceOnUse"><stop stop-color="#0D1323"/><stop offset=".1" stop-color="#3BE8B0"/><stop offset=".5" stop-color="#3BE8B0" stop-opacity=".1"/><stop offset=".8" stop-color="#3BE8B0"/><stop offset="1" stop-color="#0D1323"/></linearGradient><filter id="filter0_f" x="32.3" y="8.3" width="281.1" height="215.2" filterUnits="userSpaceOnUse" color-interpolation-filters="sRGB"><feFlood flood-opacity="0" result="BackgroundImageFix"/><feBlend in="SourceGraphic" in2="BackgroundImageFix" result="shape"/><feGaussianBlur stdDeviation="25" result="effect1_foregroundBlur"/></filter><filter id="filter1_f" x="7" y="170.8" width="228.4" height="181.7" filterUnits="userSpaceOnUse" color-interpolation-filters="sRGB"><feFlood flood-opacity="0" result="BackgroundImageFix"/><feBlend in="SourceGraphic" in2="BackgroundImageFix" result="shape"/><feGaussianBlur stdDeviation="25" result="effect1_foregroundBlur"/></filter><filter id="filter2_f" x="353.8" y="49" width="221.4" height="177.2" filterUnits="userSpaceOnUse" color-interpolation-filters="sRGB"><feFlood flood-opacity="0" result="BackgroundImageFix"/><feBlend in="SourceGraphic" in2="BackgroundImageFix" result="shape"/><feGaussianBlur stdDeviation="25" result="effect1_foregroundBlur"/></filter><filter id="filter3_f" x="320.3" y="181" width="217.7" height="174.9" filterUnits="userSpaceOnUse" color-interpolation-filters="sRGB"><feFlood flood-opacity="0" result="BackgroundImageFix"/><feBlend in="SourceGraphic" in2="BackgroundImageFix" result="shape"/><feGaussianBlur stdDeviation="25" result="effect1_foregroundBlur"/></filter><filter id="filter4_f" x="209.5" y="12.1" width="194.5" height="160.1" filterUnits="userSpaceOnUse" color-interpolation-filters="sRGB"><feFlood flood-opacity="0" result="BackgroundImageFix"/><feBlend in="SourceGraphic" in2="BackgroundImageFix" result="shape"/><feGaussianBlur stdDeviation="25" result="effect1_foregroundBlur"/></filter><filter id="filter5_d" x="70.6" y="91.7" width="325.4" height="238.7" filterUnits="userSpaceOnUse" color-interpolation-filters="sRGB"><feFlood flood-opacity="0" result="BackgroundImageFix"/><feColorMatrix in="SourceAlpha" values="0 0 0 0 0 0 0 0 0 0 0 0 0 0 0 0 0 0 127 0"/><feOffset/><feGaussianBlur stdDeviation="10"/><feColorMatrix values="0 0 0 0 0.517647 0 0 0 0 0.921569 0 0 0 0 0.690196 0 0 0 0.8 0"/><feBlend in2="BackgroundImageFix" result="effect1_dropShadow"/><feBlend in="SourceGraphic" in2="effect1_dropShadow" result="shape"/></filter><filter id="filter6_d" x="172" y="183.8" width="107" height="81.5" filterUnits="userSpaceOnUse" color-interpolation-filters="sRGB"><feFlood flood-opacity="0" result="BackgroundImageFix"/><feColorMatrix in="SourceAlpha" values="0 0 0 0 0 0 0 0 0 0 0 0 0 0 0 0 0 0 127 0"/><feOffset/><feGaussianBlur stdDeviation="11"/><feColorMatrix values="0 0 0 0 0.517647 0 0 0 0 0.921569 0 0 0 0 0.690196 0 0 0 1 0"/><feBlend in2="BackgroundImageFix" result="effect1_dropShadow"/><feBlend in="SourceGraphic" in2="effect1_dropShadow" result="shape"/></filter><radialGradient id="paint1_radial" cx="0" cy="0" r="1" gradientUnits="userSpaceOnUse" gradientTransform="rotate(7 -2497 609) scale(24.683 29.4266)"><stop offset=".3" stop-color="#fff" stop-opacity="0"/><stop offset="1" stop-color="#0D1323"/></radialGradient><radialGradient id="paint2_radial" cx="0" cy="0" r="1" gradientUnits="userSpaceOnUse" gradientTransform="matrix(56.35002 4.6579 -3.77902 45.71758 59.3 287)"><stop offset=".3" stop-color="#fff" stop-opacity="0"/><stop offset="1" stop-color="#0D1323"/></radialGradient><radialGradient id="paint4_radial" cx="0" cy="0" r="1" gradientUnits="userSpaceOnUse" gradientTransform="matrix(26.94998 4.42105 -6.97928 42.54454 459.1 186.8)"><stop offset=".3" stop-color="#fff" stop-opacity="0"/><stop offset="1" stop-color="#0D1323"/></radialGradient><radialGradient id="paint5_radial" cx="0" cy="0" r="1" gradientUnits="userSpaceOnUse" gradientTransform="rotate(8.7 -903.8 2954) scale(55.622 81.7566)"><stop offset=".3" stop-color="#fff" stop-opacity="0"/><stop offset="1" stop-color="#0D1323"/></radialGradient><radialGradient id="paint12_radial" cx="0" cy="0" r="1" gradientUnits="userSpaceOnUse" gradientTransform="rotate(13.1 -527.5 418.7) scale(17.0502 37.2314)"><stop offset=".3" stop-color="#fff" stop-opacity="0"/><stop offset="1" stop-color="#0D1323"/></radialGradient></defs></svg>