<svg width="237" height="193" fill="none" xmlns="http://www.w3.org/2000/svg"><g opacity=".4" filter="url(#filter0_f)"><path d="M55.2 61.5c-7.3 4.4-4.8 16.9-4.8 16.9a109.5 109.5 0 0037.9 27.5c16.3 6.4 22.7 15.6 49.3-6.4 26.7-22-1.5-36-8.6-40-12.6-7.5-16.2-9-35-9-22.2 0-31.5 6.6-38.8 11z" fill="#000"/></g><path fill-rule="evenodd" clip-rule="evenodd" d="M207 105.6L95.2 121.8l-.2-1.6 111.7-16 .3 1.4zM185.6 176.7l-98.9-48 .7-1.4 98.9 48-.7 1.4zM200.7 163.2l12.5-43.8 1.5.4-12.6 43.8-1.4-.4z" fill="#3BE8B0"/><path d="M208.4 87.5l-10 33.6v2.6l29.2 2.6 9-33v-2.8l-28.2-3z" fill="#0D1323" stroke="#3BE8B0" stroke-width=".5" stroke-linejoin="round"/><path opacity=".6" d="M199.2 121.4l28 2.3 4.4-15.7" stroke="url(#paint0_linear)" stroke-width=".5" stroke-linejoin="round"/><path d="M227.2 123.7v1.8" stroke="url(#paint1_linear)" stroke-width=".5" stroke-linecap="round"/><path d="M227 123.6l-28.3-2.4 9.9-33.5 27.8 2.7-9.4 33.2z" fill="#070B16"/><path d="M188.2 153.7l-10 33.5v2.7l29.2 2.6 9-33.1v-2.8l-28.2-3z" fill="#0D1323" stroke="#3BE8B0" stroke-width=".5" stroke-linejoin="round"/><path opacity=".6" d="M179 187.6l28 2.3 4.4-15.7" stroke="url(#paint2_linear)" stroke-width=".5" stroke-linejoin="round"/><path d="M207 189.9v1.7" stroke="url(#paint3_linear)" stroke-width=".5" stroke-linecap="round"/><path d="M206.8 189.7l-28.3-2.4 9.9-33.4c9.6.9 17.2 1.5 27.9 2.7l-9.5 33.1z" fill="#070B16"/><path d="M17 99.7L7.8 134l82.4 7.3 8.9-34.7 3-57.3-81.6-7.4L17 99.7z" fill="#0D1323" stroke="#3BE8B0" stroke-width=".5" stroke-linejoin="round"/><path opacity=".8" d="M17.4 99.7l40.6 3.5 40.3 3.4" stroke="url(#paint4_linear)" stroke-width=".5" stroke-linejoin="round"/><g opacity=".7"><path d="M37 122l-3.4 12 31.6 2.7 3-12-31.1-2.7z" fill="#0D1323"/><path d="M37 122l-3.4 12 31.6 2.7 3-12-31.1-2.7z" stroke="#3BE8B0" stroke-width=".5" stroke-linejoin="round"/><path d="M37 122l-3.4 12 31.6 2.7 3-12-31.1-2.7z" stroke="url(#paint5_radial)" stroke-width=".5" stroke-linejoin="round"/></g><g opacity=".7"><path d="M91 124.7l-75.5-7 3.9-15.7 75.8 6.5-4.2 16.2z" fill="#0D1323"/><path d="M91 124.7l-75.5-7 3.9-15.7 75.8 6.5-4.2 16.2z" stroke="#3BE8B0" stroke-width=".5" stroke-linejoin="round"/><path d="M91 124.7l-75.5-7 3.9-15.7 75.8 6.5-4.2 16.2z" stroke="url(#paint6_radial)" stroke-width=".5" stroke-linejoin="round"/></g><path d="M99.4 51.6L22.8 45l-3 52.4 76.6 6.1 3-52z" fill="#070B16"/><defs><linearGradient id="paint0_linear" x1="200.3" y1="121.8" x2="248.5" y2="94.3" gradientUnits="userSpaceOnUse"><stop stop-color="#0D1323"/><stop offset=".3" stop-color="#3BE8B0"/><stop offset=".4" stop-color="#3BE8B0"/><stop offset=".5" stop-color="#0D1323"/></linearGradient><linearGradient id="paint1_linear" x1="227.2" y1="124.2" x2="227.2" y2="125.5" gradientUnits="userSpaceOnUse"><stop stop-color="#289377"/><stop offset="1" stop-color="#2DA886" stop-opacity="0"/></linearGradient><linearGradient id="paint2_linear" x1="180.1" y1="188" x2="228.3" y2="160.5" gradientUnits="userSpaceOnUse"><stop stop-color="#0D1323"/><stop offset=".3" stop-color="#3BE8B0"/><stop offset=".4" stop-color="#3BE8B0"/><stop offset=".5" stop-color="#0D1323"/></linearGradient><linearGradient id="paint3_linear" x1="207" y1="190.3" x2="207" y2="191.6" gradientUnits="userSpaceOnUse"><stop stop-color="#289377"/><stop offset="1" stop-color="#2DA886" stop-opacity="0"/></linearGradient><linearGradient id="paint4_linear" x1="17.4" y1="99.7" x2="96.4" y2="106.6" gradientUnits="userSpaceOnUse"><stop stop-color="#0D1323"/><stop offset=".2" stop-color="#3BE8B0"/><stop offset=".8" stop-color="#3BE8B0"/><stop offset="1" stop-color="#0D1323"/></linearGradient><radialGradient id="paint5_radial" cx="0" cy="0" r="1" gradientUnits="userSpaceOnUse" gradientTransform="matrix(18.86599 2.31012 -2.75409 22.49171 49.8 129)"><stop offset=".3" stop-color="#fff" stop-opacity="0"/><stop offset="1" stop-color="#0D1323"/></radialGradient><radialGradient id="paint6_radial" cx="0" cy="0" r="1" gradientUnits="userSpaceOnUse" gradientTransform="matrix(43.39171 3.58676 -2.91 35.20433 52.7 112.8)"><stop offset=".3" stop-color="#fff" stop-opacity="0"/><stop offset="1" stop-color="#0D1323"/></radialGradient><filter id="filter0_f" x="0" y=".5" width="198.9" height="162.9" filterUnits="userSpaceOnUse" color-interpolation-filters="sRGB"><feFlood flood-opacity="0" result="BackgroundImageFix"/><feBlend in="SourceGraphic" in2="BackgroundImageFix" result="shape"/><feGaussianBlur stdDeviation="25" result="effect1_foregroundBlur"/></filter></defs></svg>