<svg width="320" height="214" fill="none" xmlns="http://www.w3.org/2000/svg"><g opacity=".3" filter="url(#filter0_f)"><path d="M186.5 110.3c-7.7 4.6-5 17.7-5 17.7 12.8 12.9 24.4 22.9 39.6 28.8 17 6.7 8.4 13.8 36.3-9.2 28-23-1.6-37.7-9-42-13.2-7.8-1.6-6.8-21.2-6.8-23.4 0-33 7-40.7 11.5z" fill="#000"/></g><g opacity=".4" filter="url(#filter1_f)"><path d="M56.4 62c-7.7 4.5-5 17.6-5 17.6 12.8 12.9 24.4 22.9 39.6 28.8 17.1 6.7 23.8 16.3 51.7-6.7 28-23-1.6-37.6-9-42-13.2-7.7-17-9.3-36.6-9.3-23.3 0-33 7-40.7 11.5z" fill="#000"/></g><path fill-rule="evenodd" clip-rule="evenodd" d="M204 134.1l-105.7-9 .1-1.7 105.7 9-.1 1.7z" fill="#3BE8B0"/><path d="M208.5 112.6l-10.4 35.1v2.8l30.5 2.8 9.4-34.7v-3l-29.5-3z" fill="#0D1323" stroke="#3BE8B0" stroke-width=".5" stroke-linejoin="round"/><path opacity=".6" d="M198.9 148.1l29.3 2.4 4.6-16.4" stroke="url(#paint0_linear)" stroke-width=".5" stroke-linejoin="round"/><path d="M228.2 150.5v1.9" stroke="url(#paint1_linear)" stroke-width=".5" stroke-linecap="round"/><path d="M228 150.3l-29.7-2.5 10.4-35c10.1 1 18 1.6 29.2 2.9l-9.9 34.6z" fill="#070B16"/><path d="M16.5 102l-9.7 35.8 86.2 7.6 9.3-36.2 3.2-60.1-85.4-7.7-3.6 60.5z" fill="#0D1323" stroke="#3BE8B0" stroke-width=".5" stroke-linejoin="round"/><path opacity=".8" d="M16.9 102l42.5 3.5 42.1 3.7" stroke="url(#paint2_linear)" stroke-width=".5" stroke-linejoin="round"/><g opacity=".7"><path d="M37.4 125.3l-3.6 12.5 33 2.8 3.3-12.5-32.7-2.8z" fill="#0D1323"/><path d="M37.4 125.3l-3.6 12.5 33 2.8 3.3-12.5-32.7-2.8z" stroke="#3BE8B0" stroke-width=".5" stroke-linejoin="round"/><path d="M37.4 125.3l-3.6 12.5 33 2.8 3.3-12.5-32.7-2.8z" stroke="url(#paint3_radial)" stroke-width=".5" stroke-linejoin="round"/></g><g opacity=".7"><path d="M93.8 128.1l-79-7.2 4-16.6 79.5 6.9-4.5 17z" fill="#0D1323"/><path d="M93.8 128.1l-79-7.2 4-16.6 79.5 6.9-4.5 17z" stroke="#3BE8B0" stroke-width=".5" stroke-linejoin="round"/><path d="M93.8 128.1l-79-7.2 4-16.6 79.5 6.9-4.5 17z" stroke="url(#paint4_radial)" stroke-width=".5" stroke-linejoin="round"/></g><path d="M102.7 51.5l-80.2-6.8-3.2 54.8 80.2 6.4 3.2-54.4z" fill="#070B16"/><defs><linearGradient id="paint0_linear" x1="200.1" y1="148.5" x2="250.5" y2="119.8" gradientUnits="userSpaceOnUse"><stop stop-color="#0D1323"/><stop offset=".3" stop-color="#3BE8B0"/><stop offset=".4" stop-color="#3BE8B0"/><stop offset=".5" stop-color="#0D1323"/></linearGradient><linearGradient id="paint1_linear" x1="228.2" y1="151" x2="228.2" y2="152.4" gradientUnits="userSpaceOnUse"><stop stop-color="#289377"/><stop offset="1" stop-color="#2DA886" stop-opacity="0"/></linearGradient><linearGradient id="paint2_linear" x1="16.9" y1="101.9" x2="99.5" y2="109.2" gradientUnits="userSpaceOnUse"><stop stop-color="#0D1323"/><stop offset=".2" stop-color="#3BE8B0"/><stop offset=".8" stop-color="#3BE8B0"/><stop offset="1" stop-color="#0D1323"/></linearGradient><radialGradient id="paint3_radial" cx="0" cy="0" r="1" gradientUnits="userSpaceOnUse" gradientTransform="matrix(19.75148 2.41855 -2.88335 23.54733 50.7 132.5)"><stop offset=".3" stop-color="#fff" stop-opacity="0"/><stop offset="1" stop-color="#0D1323"/></radialGradient><radialGradient id="paint4_radial" cx="0" cy="0" r="1" gradientUnits="userSpaceOnUse" gradientTransform="rotate(4.7 -1374 709.5) scale(45.5832 36.9824)"><stop offset=".3" stop-color="#fff" stop-opacity="0"/><stop offset="1" stop-color="#0D1323"/></radialGradient><filter id="filter0_f" x="131" y="48.8" width="188.1" height="164.6" filterUnits="userSpaceOnUse" color-interpolation-filters="sRGB"><feFlood flood-opacity="0" result="BackgroundImageFix"/><feBlend in="SourceGraphic" in2="BackgroundImageFix" result="shape"/><feGaussianBlur stdDeviation="25" result="effect1_foregroundBlur"/></filter><filter id="filter1_f" x="1" y=".4" width="203.5" height="165.8" filterUnits="userSpaceOnUse" color-interpolation-filters="sRGB"><feFlood flood-opacity="0" result="BackgroundImageFix"/><feBlend in="SourceGraphic" in2="BackgroundImageFix" result="shape"/><feGaussianBlur stdDeviation="25" result="effect1_foregroundBlur"/></filter></defs></svg>